<svg width="13" height="16" viewBox="0 0 13 16" fill="none" xmlns="http://www.w3.org/2000/svg">
<path d="M6.73983 0.203125C3.55515 0.203125 0.407715 2.34063 0.407715 5.8C0.407715 8 1.63689 9.25 2.38185 9.25C2.68914 9.25 2.86607 8.3875 2.86607 8.14375C2.86607 7.85313 2.13042 7.23438 2.13042 6.025C2.13042 3.5125 4.03006 1.73125 6.48841 1.73125C8.60222 1.73125 10.1666 2.94062 10.1666 5.1625C10.1666 6.82187 9.50548 9.93437 7.36373 9.93437C6.59084 9.93437 5.92969 9.37187 5.92969 8.56563C5.92969 7.38438 6.74915 6.24062 6.74915 5.02187C6.74915 2.95312 3.83451 3.32812 3.83451 5.82812C3.83451 6.35313 3.89969 6.93437 4.13249 7.4125C3.70414 9.26875 2.82882 12.0344 2.82882 13.9469C2.82882 14.5375 2.91263 15.1188 2.9685 15.7094C3.07403 15.8281 3.02127 15.8156 3.18267 15.7563C4.74708 13.6 4.69121 13.1781 5.39891 10.3562C5.7807 11.0875 6.76777 11.4812 7.54997 11.4812C10.8464 11.4812 12.327 8.24688 12.327 5.33125C12.327 2.22813 9.66378 0.203125 6.73983 0.203125Z" fill="black"/>
</svg>
