<svg width="17" height="14" viewBox="0 0 17 14" fill="none" xmlns="http://www.w3.org/2000/svg">
<path d="M14.4179 3.74113C14.428 3.88325 14.428 4.02541 14.428 4.16753C14.428 8.50253 11.1507 13.4975 5.16084 13.4975C3.31546 13.4975 1.6012 12.9594 0.15918 12.0254C0.421373 12.0558 0.673447 12.066 0.945728 12.066C2.46839 12.066 3.87008 11.5483 4.98941 10.665C3.55748 10.6345 2.35748 9.69038 1.94403 8.39088C2.14573 8.42131 2.34739 8.44163 2.55918 8.44163C2.8516 8.44163 3.14406 8.401 3.41631 8.32997C1.92388 8.02538 0.804528 6.7056 0.804528 5.11169V5.07109C1.23812 5.31475 1.74236 5.46703 2.27678 5.48731C1.39947 4.89847 0.824704 3.89341 0.824704 2.75634C0.824704 2.14722 0.986018 1.58884 1.26839 1.10153C2.87175 3.09138 5.28183 4.39084 7.98431 4.533C7.9339 4.28934 7.90364 4.03556 7.90364 3.78175C7.90364 1.97463 9.35574 0.502563 11.1608 0.502563C12.0986 0.502563 12.9456 0.898501 13.5406 1.53809C14.2767 1.39597 14.9826 1.12184 15.6078 0.74622C15.3658 1.50766 14.8515 2.14725 14.1759 2.55331C14.8313 2.48228 15.4666 2.2995 16.0515 2.04572C15.6079 2.69544 15.0532 3.27409 14.4179 3.74113Z" fill="black"/>
</svg>
